<?xml version="1.0" encoding="utf-8"?>
<!-- Generator: Adobe Illustrator 21.1.0, SVG Export Plug-In . SVG Version: 6.00 Build 0)  -->
<svg version="1.1" id="Layer_1" xmlns="http://www.w3.org/2000/svg" xmlns:xlink="http://www.w3.org/1999/xlink" x="0px" y="0px"
	 viewBox="0 0 269.9 55" style="enable-background:new 0 0 269.9 55;" xml:space="preserve">
<style type="text/css">
	.st0{fill:#1C437D;}
	.st1{fill:#FFC325;}
</style>
<g>
	<g>
		<g>
			<polyline class="st0" points="58.4,6.9 62.5,6.9 62.5,18.9 67.5,18.9 67.5,21.9 58.4,21.9 58.4,6.9 			"/>
			<path class="st0" d="M78.8,19.5c0,0.9,0.1,1.8,0.1,2.5h-3.5c0-0.5-0.1-1-0.1-1.6c-1.1,1.3-2,1.8-3.4,1.8c-2,0-3.4-1.4-3.4-3.6
				c0-2.5,1.9-3.8,5.8-3.8h1v-0.3c0-0.7-0.6-1.5-2.1-1.5c-1.2,0-2.4,0.5-3.2,1.1l-0.1-2.8c0.9-0.3,2.3-0.7,4.2-0.7
				c4,0,4.7,1.9,4.7,4.2V19.5z M75.4,16.5h-0.5c-1.7,0-2.9,0.5-2.9,1.9c0,1,0.5,1.4,1.3,1.4c1.8,0,2-1.8,2-2.9V16.5"/>
			<path class="st0" d="M91.2,20.1c0,0.8,0.1,1.6,0.1,1.9h-3.7c-0.1-0.5-0.1-1.3-0.1-1.9h0c-0.2,0.6-1,2.1-3.2,2.1
				c-1.9,0-3.4-1.1-3.4-3.6v-7.9h3.9v6.8c0,1.1,0.3,1.6,1.1,1.6c1.1,0,1.4-1,1.4-1.9v-6.5h3.9L91.2,20.1"/>
			<path class="st0" d="M93.4,13.9c0-1.6-0.1-2.7-0.1-3.3h3.7c0.1,0.5,0.1,1.3,0.1,1.9h0c0.3-0.9,1-2.1,2.9-2.1c0.3,0,0.4,0,0.6,0.1
				v3.4c-0.2-0.1-0.7-0.1-1.2-0.1c-1.3,0-2.1,1.1-2.1,2.6v5.6h-3.9L93.4,13.9"/>
			<path class="st0" d="M105.1,17.4c0.1,1.8,1.4,2.4,2.8,2.4c1.1,0,2.3-0.5,3.3-0.9l0.1,2.7c-0.9,0.3-2.4,0.6-3.9,0.6
				c-4.6,0-5.9-3-5.9-5.9c0-3.1,1.8-5.8,5.2-5.8c3.5,0,5.2,2.8,5.2,5.9v1.1L105.1,17.4L105.1,17.4z M108.4,15.3V15
				c0-1.5-0.4-2.2-1.6-2.2c-1.1,0-1.8,1-1.8,2.5H108.4"/>
			<path class="st0" d="M113.8,13c0-0.8-0.1-1.8-0.1-2.3h3.7c0.1,0.5,0.1,1.3,0.1,1.9h0c0.2-0.6,1-2.1,3.2-2.1
				c1.9,0,3.4,1.1,3.4,3.6v7.9h-3.9v-6.8c0-1.1-0.3-1.6-1.1-1.6c-1,0-1.4,1-1.4,2.2v6.2h-3.9V13"/>
			<path class="st0" d="M125.4,10.7h1.9V8.3l3.9-1.2v3.6h2.2v2.6h-2.2v4.8c0,1,0.6,1.4,1.3,1.4c0.4,0,0.7-0.1,0.9-0.2l0.1,2.6
				c-0.5,0.1-1.4,0.3-2.6,0.3c-2.1,0-3.6-1.2-3.6-3.3v-5.6h-1.9L125.4,10.7"/>
			<path class="st0" d="M135.4,5.7h3.9V9h-3.9V5.7z M135.4,10.7h3.9v11.3h-3.9V10.7z"/>
			<path class="st0" d="M151.5,19.5c0,0.9,0.1,1.8,0.1,2.5h-3.5c0-0.5-0.1-1-0.1-1.6c-1.1,1.3-2,1.8-3.4,1.8c-2,0-3.4-1.4-3.4-3.6
				c0-2.5,1.9-3.8,5.8-3.8h1v-0.3c0-0.7-0.6-1.5-2.1-1.5c-1.2,0-2.4,0.5-3.2,1.1l-0.1-2.8c0.9-0.3,2.3-0.7,4.2-0.7
				c4,0,4.7,1.9,4.7,4.2L151.5,19.5L151.5,19.5z M148.1,16.5h-0.5c-1.7,0-2.9,0.5-2.9,1.9c0,1,0.5,1.4,1.3,1.4c1.8,0,2-1.8,2-2.9
				V16.5"/>
			<path class="st0" d="M153.7,13c0-0.8-0.1-1.8-0.1-2.3h3.7c0.1,0.5,0.1,1.3,0.1,1.9h0c0.2-0.6,1-2.1,3.2-2.1
				c1.9,0,3.4,1.1,3.4,3.6v7.9H160v-6.8c0-1.1-0.3-1.6-1.1-1.6c-1,0-1.4,1-1.4,2.2v6.2h-3.9L153.7,13"/>
			<path class="st0" d="M166.7,6.9h1.3v9.5c0,2.3,0.4,4.5,3.1,4.5c2.8,0,3.1-2.4,3.1-4.5V6.9h1.3v9.5c0,3-1,5.7-4.5,5.7
				s-4.5-2.5-4.5-5.7V6.9"/>
			<path class="st0" d="M178.9,14.3c0-1.1-0.1-2.3-0.1-3.4h1.2c0,0.5,0.1,0.8,0.1,1.6h0c0.3-0.5,1-1.8,2.8-1.8c3,0,3,3,3,3.8v7.4
				h-1.3v-7.4c0-0.8,0-2.6-2.1-2.6c-1.5,0-2.5,1.4-2.5,3.2v6.8h-1.3V14.3"/>
			<path class="st0" d="M188.9,6.5h1.5v1.9h-1.5V6.5z M189,10.9h1.3v11H189V10.9z"/>
			<polyline class="st0" points="192.1,10.9 193.4,10.9 196,20.5 196,20.5 198.8,10.9 200,10.9 196.8,21.9 195.3,21.9 192.1,10.9 
							"/>
			<path class="st0" d="M202.5,16.8c0,4.1,2.6,4.1,3.1,4.1c0.7,0,1.7-0.3,2.4-0.9l0.1,1.4c-0.5,0.3-1.3,0.6-2.6,0.6
				c-4.3,0-4.3-4.6-4.3-5.7c0-4.1,2.1-5.7,3.9-5.7c3.2,0,3.5,3.4,3.5,6.1L202.5,16.8L202.5,16.8z M207.2,15.7c0-2.9-1.2-3.7-2.2-3.7
				c-1.7,0-2.5,2.3-2.5,3.7H207.2"/>
			<path class="st0" d="M210.9,14.3c0-1.1-0.1-2.3-0.1-3.4h1.2c0,0.6,0.1,1.3,0.1,1.8h0c0.8-1.6,1.7-1.9,2.9-1.9v1.3
				c-2,0-2.9,0.9-2.9,2.9v6.9h-1.3V14.3"/>
			<path class="st0" d="M221.5,12.4c-0.6-0.2-1.2-0.5-1.9-0.5c-1.3,0-1.9,1-1.9,1.7c0,1,0.4,1.2,1.9,2.1c1.5,0.8,2.7,1.4,2.7,3.2
				c0,2-1.4,3.2-3.3,3.2c-1.4,0-2.1-0.3-2.8-0.5l0.2-1.4c0.4,0.3,1.5,0.8,2.5,0.8c1.2,0,2-0.9,2-1.9c0-1.1-0.7-1.5-2-2.1
				c-1.9-0.9-2.6-1.5-2.6-3.1c0-2.1,1.8-3,3.2-3c0.7,0,1.6,0.2,2,0.3L221.5,12.4"/>
			<path class="st0" d="M224.5,6.5h1.5v1.9h-1.5V6.5z M224.6,10.9h1.3v11h-1.3V10.9z"/>
			<path class="st0" d="M230.8,8.3v2.6h2.2v1.2h-2.2v7.2c0,0.9,0.2,1.7,1.2,1.7c0.6,0,0.8-0.1,1-0.2v1.3c-0.3,0.1-0.9,0.2-1.4,0.2
				c-1.6,0-2.1-1.3-2.1-2.5v-7.5h-1.6v-1.2h1.6V8.7L230.8,8.3"/>
			<path class="st0" d="M238.1,20.1L238.1,20.1l2.5-9.2h1.3L238.3,24c-0.4,1.5-0.8,2.7-2.5,2.7c-0.3,0-0.5,0-0.8-0.1l0.1-1.3
				c0.2,0.2,0.6,0.2,0.9,0.2c0.6,0,0.9-0.6,1.1-1.3l0.6-2.1l-3.2-11.3h1.3L238.1,20.1"/>
		</g>
		<g>
			<path class="st0" d="M58.4,25.7h1.3v9.5c0,2.3,0.4,4.5,3.1,4.5c2.8,0,3.1-2.4,3.1-4.5v-9.5h1.3v9.5c0,3-1,5.7-4.5,5.7
				c-3.5,0-4.5-2.5-4.5-5.7L58.4,25.7"/>
			<path class="st0" d="M70.6,33.1c0-1.1-0.1-2.3-0.1-3.4h1.2c0,0.5,0.1,0.8,0.1,1.6h0c0.3-0.5,1-1.8,2.8-1.8c3,0,3,3,3,3.8v7.4
				h-1.3v-7.4c0-0.8,0-2.6-2.1-2.6c-1.5,0-2.5,1.4-2.5,3.2v6.8h-1.3L70.6,33.1"/>
			<path class="st0" d="M80.6,25.3h1.5v1.9h-1.5V25.3z M80.7,29.7h1.3v11h-1.3V29.7z"/>
			<polyline class="st0" points="83.8,29.7 85.1,29.7 87.7,39.3 87.8,39.3 90.5,29.7 91.7,29.7 88.5,40.7 87,40.7 83.8,29.7 			"/>
			<path class="st0" d="M94.2,35.6c0,4.1,2.6,4.1,3.1,4.1c0.7,0,1.8-0.3,2.4-0.9l0.1,1.4c-0.5,0.3-1.3,0.6-2.6,0.6
				c-4.3,0-4.3-4.6-4.3-5.7c0-4.1,2.1-5.7,3.9-5.7c3.2,0,3.5,3.4,3.5,6.1L94.2,35.6L94.2,35.6z M98.9,34.5c0-2.9-1.2-3.7-2.2-3.7
				c-1.7,0-2.5,2.3-2.5,3.7H98.9"/>
			<path class="st0" d="M102.6,33.1c0-1.1-0.1-2.3-0.1-3.4h1.2c0,0.6,0.1,1.3,0.1,1.8h0c0.8-1.6,1.7-1.9,2.9-1.9v1.3
				c-2,0-2.9,0.9-2.9,2.9v6.9h-1.3L102.6,33.1"/>
			<path class="st0" d="M113.2,31.2c-0.6-0.2-1.2-0.5-1.9-0.5c-1.3,0-1.9,1-1.9,1.8c0,1,0.4,1.2,1.9,2.1c1.5,0.8,2.7,1.4,2.7,3.2
				c0,2-1.4,3.2-3.3,3.2c-1.4,0-2.1-0.3-2.8-0.5l0.2-1.4c0.4,0.3,1.5,0.8,2.5,0.8c1.2,0,2-0.9,2-1.9c0-1.1-0.7-1.5-2-2.1
				c-1.9-0.9-2.6-1.5-2.6-3.1c0-2.1,1.8-3,3.2-3c0.7,0,1.6,0.2,2,0.3L113.2,31.2"/>
			<path class="st0" d="M116.2,25.3h1.5v1.9h-1.5V25.3z M116.3,29.7h1.3v11h-1.3V29.7z"/>
			<path class="st0" d="M122.5,27.1v2.6h2.2v1.2h-2.2v7.2c0,0.9,0.2,1.7,1.2,1.7c0.6,0,0.8-0.1,1-0.2v1.3c-0.3,0.1-0.9,0.2-1.4,0.2
				c-1.6,0-2.1-1.3-2.1-2.5v-7.5h-1.6v-1.2h1.6v-2.2L122.5,27.1"/>
			<path class="st0" d="M127.4,35.6c0,4.1,2.6,4.1,3.1,4.1c0.7,0,1.7-0.3,2.4-0.9l0.1,1.4c-0.5,0.3-1.3,0.6-2.6,0.6
				c-4.3,0-4.3-4.6-4.3-5.7c0-4.1,2.1-5.7,3.9-5.7c3.2,0,3.5,3.4,3.5,6.1L127.4,35.6L127.4,35.6z M132.2,34.5c0-2.9-1.2-3.7-2.2-3.7
				c-1.7,0-2.5,2.3-2.5,3.7H132.2z M131.9,25l-2.1,3.1h-1.1l1.6-3.1H131.9"/>
			<polyline class="st0" points="135.7,25.7 139.8,25.7 139.8,37.7 144.8,37.7 144.8,40.7 135.7,40.7 135.7,25.7 			"/>
			<path class="st0" d="M156.1,38.2c0,0.9,0.1,1.8,0.1,2.5h-3.5c0-0.5-0.1-1-0.1-1.6c-1.1,1.3-2,1.8-3.4,1.8c-2,0-3.4-1.4-3.4-3.6
				c0-2.5,1.9-3.8,5.8-3.8h1v-0.3c0-0.7-0.6-1.5-2.1-1.5c-1.2,0-2.4,0.5-3.2,1.1l-0.1-2.8c0.9-0.3,2.3-0.7,4.2-0.7
				c4,0,4.7,1.9,4.7,4.2L156.1,38.2L156.1,38.2z M152.7,35.3h-0.5c-1.7,0-2.9,0.5-2.9,1.9c0,1,0.5,1.4,1.3,1.4c1.8,0,2-1.8,2-2.9
				V35.3"/>
			<path class="st0" d="M168.5,38.9c0,0.8,0.1,1.6,0.1,1.9H165c-0.1-0.5-0.1-1.3-0.1-1.9h0c-0.2,0.6-1,2.1-3.2,2.1
				c-1.9,0-3.4-1.1-3.4-3.6v-7.9h3.9v6.8c0,1.1,0.3,1.6,1.1,1.6c1.1,0,1.4-1,1.4-1.9v-6.5h3.9L168.5,38.9"/>
			<path class="st0" d="M170.7,32.7c0-1.6-0.1-2.7-0.1-3.3h3.7c0.1,0.5,0.1,1.3,0.1,1.9h0c0.3-0.9,1-2.1,2.9-2.1
				c0.3,0,0.4,0,0.6,0.1v3.4c-0.2-0.1-0.7-0.1-1.2-0.1c-1.3,0-2.1,1.1-2.1,2.6v5.6h-3.9L170.7,32.7"/>
			<path class="st0" d="M182.4,36.2c0.1,1.8,1.4,2.4,2.8,2.4c1.1,0,2.3-0.5,3.3-0.9l0.1,2.7c-0.9,0.3-2.4,0.6-3.9,0.6
				c-4.6,0-5.9-3-5.9-5.9c0-3.1,1.8-5.8,5.2-5.8c3.5,0,5.2,2.8,5.2,5.9v1.1L182.4,36.2L182.4,36.2z M185.7,34.1v-0.3
				c0-1.5-0.4-2.2-1.6-2.2c-1.1,0-1.8,1-1.8,2.6L185.7,34.1"/>
			<path class="st0" d="M191.1,31.8c0-0.8-0.1-1.8-0.1-2.3h3.7c0.1,0.5,0.1,1.3,0.1,1.9h0c0.2-0.6,1-2.1,3.2-2.1
				c1.9,0,3.4,1.1,3.4,3.6v7.9h-3.9V34c0-1.1-0.3-1.6-1.1-1.6c-1,0-1.4,1-1.4,2.2v6.2h-3.9L191.1,31.8"/>
			<path class="st0" d="M202.7,29.5h1.9v-2.4l3.9-1.2v3.6h2.2v2.6h-2.2v4.8c0,1,0.6,1.4,1.3,1.4c0.4,0,0.7-0.1,0.9-0.2l0.1,2.6
				c-0.5,0.1-1.4,0.3-2.6,0.3c-2.1,0-3.6-1.2-3.6-3.3v-5.6h-1.9V29.5"/>
			<path class="st0" d="M212.8,24.5h3.9v3.2h-3.9V24.5z M212.8,29.5h3.9v11.3h-3.9V29.5z"/>
			<path class="st0" d="M222.3,36.2c0.1,1.8,1.4,2.4,2.8,2.4c1.1,0,2.3-0.5,3.3-0.9l0.1,2.7c-0.9,0.3-2.4,0.6-3.9,0.6
				c-4.6,0-5.9-3-5.9-5.9c0-3.1,1.8-5.8,5.2-5.8c3.5,0,5.2,2.8,5.2,5.9v1.1L222.3,36.2L222.3,36.2z M225.6,34.1v-0.3
				c0-1.5-0.4-2.2-1.6-2.2c-1.1,0-1.8,1-1.8,2.6L225.6,34.1"/>
			<path class="st0" d="M231,31.8c0-0.8-0.1-1.8-0.1-2.3h3.7c0.1,0.5,0.1,1.3,0.1,1.9h0c0.2-0.6,1-2.1,3.2-2.1
				c1.9,0,3.4,1.1,3.4,3.6v7.9h-3.9V34c0-1.1-0.3-1.6-1.1-1.6c-1,0-1.4,1-1.4,2.2v6.2H231L231,31.8"/>
			<path class="st0" d="M243.4,31.8c0-0.8-0.1-1.8-0.1-2.3h3.7c0.1,0.5,0.1,1.3,0.1,1.9h0c0.2-0.6,1-2.1,3.2-2.1
				c1.9,0,3.4,1.1,3.4,3.6v7.9h-3.9V34c0-1.1-0.3-1.6-1.1-1.6c-1,0-1.4,1-1.4,2.2v6.2h-3.9L243.4,31.8"/>
			<path class="st0" d="M259.1,36.2c0.1,1.8,1.4,2.4,2.8,2.4c1.1,0,2.3-0.5,3.3-0.9l0.1,2.7c-0.9,0.3-2.4,0.6-3.9,0.6
				c-4.6,0-5.9-3-5.9-5.9c0-3.1,1.8-5.8,5.2-5.8c3.5,0,5.2,2.8,5.2,5.9v1.1L259.1,36.2L259.1,36.2z M262.4,34.1v-0.3
				c0-1.5-0.4-2.2-1.6-2.2c-1.1,0-1.7,1-1.7,2.6L262.4,34.1"/>
		</g>
	</g>
	<path class="st1" d="M23.6,35.6c-5,0-9.5,2.6-12.1,6.5c2.8,3.5,6.8,6.4,12.1,8.1c5.4-1.7,9.3-4.7,12.1-8.1
		C33.1,38.1,28.7,35.6,23.6,35.6"/>
	<path class="st0" d="M23.6,4.8c-6.8,0-13.4,0.8-19.7,2v11.1c0,3.4,0.5,14.4,6.7,22.9c2.7-3.8,7.1-6.4,12.1-6.7
		c0.6-1.2,1.3-2.5,1.9-3.9c-1.9-0.5-1.9-2.4-0.8-3.6c0.6-0.6,1.6-1.1,2.9-1.5c0.2-0.6,0.4-1.3,0.7-1.9c-1.1,0.3-2.1,0.7-2.8,1.1
		c-1.9,0.9-1,3-3.4,2.7c-2.4-0.2-2.5-2.4-1.3-3.7c1.1-1.2,4.1-2,7.5-2.1c-0.5-0.7-0.3-1.7,0.4-2.5c0.2-0.3,0.6-0.5,1-0.7
		c0-0.2,0.1-0.4,0.1-0.6c-0.4,0.2-0.8,0.3-1.1,0.5c-1.6,0.8-0.9,2.5-2.9,2.4c-2.1-0.2-2.1-2.1-1.1-3.2c0.9-0.9,3-1.6,5.5-1.8
		c0.2-1.4,0.3-2.8,0.3-4.2l0.6-0.2c0.3,0.8,0.3,2.4,0.1,4.3c1.9-0.1,4,0.2,5.7,0.7c-1.8,0-4.1,0.5-5.9,1.1c0,0.2,0,0.3-0.1,0.5
		c2.6-0.9,6.8-1,10,0c-2.6,0.1-6.2,1-8.1,1.9c-0.9,0.5-1.1,1.2-1.4,1.7c1.3,0.1,2.5,0.4,3.6,0.7c-1.6,0-3.5,0.4-5.3,0.8
		c-0.2,0.6-0.3,1.3-0.5,2c2.9-0.5,6.7-0.4,9.7,0.5c-3,0.1-7.3,1.2-9.4,2.3c-1.3,0.7-1.3,1.8-1.9,2.4c-0.5,1.4-1.1,2.8-1.7,4.2
		c4.8,0.4,9,2.9,11.7,6.6c6.2-8.5,6.7-19.6,6.7-22.9V6.9C37.1,5.6,30.5,4.8,23.6,4.8z M29.2,10.6c-1.5,0.7-0.8,2.3-2.7,2.1
		c-1.9-0.2-1.9-1.9-1-2.9c1.5-1.6,7.1-2.3,11.1-1C34.2,8.9,30.9,9.8,29.2,10.6"/>
</g>
</svg>
